<?xml version="1.0" encoding="UTF-8" standalone="no"?>
<!-- Created with Inkscape (http://www.inkscape.org/) -->

<svg
   xmlns:dc="http://purl.org/dc/elements/1.1/"
   xmlns:cc="http://creativecommons.org/ns#"
   xmlns:rdf="http://www.w3.org/1999/02/22-rdf-syntax-ns#"
   xmlns:svg="http://www.w3.org/2000/svg"
   xmlns="http://www.w3.org/2000/svg"
   xmlns:xlink="http://www.w3.org/1999/xlink"
   xmlns:sodipodi="http://sodipodi.sourceforge.net/DTD/sodipodi-0.dtd"
   xmlns:inkscape="http://www.inkscape.org/namespaces/inkscape"
   width="512"
   height="250"
   viewBox="0 0 135.46666 66.145833"
   version="1.1"
   id="svg8"
   inkscape:version="0.92.3 (2405546, 2018-03-11)"
   sodipodi:docname="power.svg">
  <defs
     id="defs2">
    <linearGradient
       inkscape:collect="always"
       id="linearGradient966">
      <stop
         style="stop-color:#ffffff;stop-opacity:1"
         offset="0"
         id="stop962" />
      <stop
         style="stop-color:#d4d4d4;stop-opacity:1"
         offset="1"
         id="stop964" />
    </linearGradient>
    <linearGradient
       inkscape:collect="always"
       id="linearGradient956">
      <stop
         style="stop-color:#fffff6;stop-opacity:1"
         offset="0"
         id="stop952" />
      <stop
         style="stop-color:#0078d2;stop-opacity:1"
         offset="1"
         id="stop954" />
    </linearGradient>
    <clipPath
       clipPathUnits="userSpaceOnUse"
       id="clipPath840">
      <rect
         style="opacity:1;fill:#0078d2;fill-opacity:1;stroke:none;stroke-width:2.53911281;stroke-linecap:round;stroke-linejoin:miter;stroke-miterlimit:4;stroke-dasharray:none;stroke-opacity:1;paint-order:fill markers stroke"
         id="rect842"
         width="319.73709"
         height="222.98676"
         x="-557.42938"
         y="-145.09631" />
    </clipPath>
    <clipPath
       clipPathUnits="userSpaceOnUse"
       id="clipPath1211">
      <rect
         style="opacity:1;fill:#c9c9c9;fill-opacity:1;stroke:none;stroke-width:2.52867913;stroke-linecap:round;stroke-linejoin:miter;stroke-miterlimit:4;stroke-dasharray:none;stroke-opacity:1;paint-order:fill markers stroke"
         id="rect1213"
         width="319.53162"
         height="222.83458"
         x="-847.28082"
         y="-303.74591"
         rx="0"
         ry="0" />
    </clipPath>
    <radialGradient
       inkscape:collect="always"
       xlink:href="#linearGradient956"
       id="radialGradient958"
       cx="70.291237"
       cy="81.347343"
       fx="70.291237"
       fy="81.347343"
       r="4.5993114"
       gradientTransform="matrix(0.88982075,-1.649601e-8,1.6881888e-8,0.91063559,7.7446351,7.2698711)"
       gradientUnits="userSpaceOnUse" />
    <radialGradient
       inkscape:collect="always"
       xlink:href="#linearGradient966"
       id="radialGradient968"
       cx="75.542229"
       cy="87.46888"
       fx="75.542229"
       fy="87.46888"
       r="4.9436116"
       gradientTransform="matrix(1.6074264,5.7889649e-8,-5.5927276e-8,1.5529371,-45.885337,-48.384866)"
       gradientUnits="userSpaceOnUse" />
  </defs>
  <sodipodi:namedview
     id="base"
     pagecolor="#6d0098"
     bordercolor="#666666"
     borderopacity="1.0"
     inkscape:pageopacity="0"
     inkscape:pageshadow="2"
     inkscape:zoom="0.7071068"
     inkscape:cx="-170.81919"
     inkscape:cy="123.96916"
     inkscape:document-units="mm"
     inkscape:current-layer="layer1"
     showgrid="false"
     inkscape:window-width="1920"
     inkscape:window-height="1017"
     inkscape:window-x="-8"
     inkscape:window-y="-8"
     inkscape:window-maximized="1"
     inkscape:snap-global="false"
     units="px" />
  <metadata
     id="metadata5">
    <rdf:RDF>
      <cc:Work
         rdf:about="">
        <dc:format>image/svg+xml</dc:format>
        <dc:type
           rdf:resource="http://purl.org/dc/dcmitype/StillImage" />
        <dc:title></dc:title>
      </cc:Work>
    </rdf:RDF>
  </metadata>
  <g
     inkscape:label="Layer 1"
     inkscape:groupmode="layer"
     id="layer1"
     transform="translate(0,-230.85416)">
    <g
       id="g1000"
       transform="translate(-0.15881886,44.748605)">
      <g
         transform="matrix(1.2444522,0,0,1.2444522,-16.596388,-14.5684)"
         id="text1007"
         style="font-style:normal;font-weight:normal;font-size:10.58333302px;line-height:1.25;font-family:sans-serif;letter-spacing:0px;word-spacing:0px;fill:#ffffff;fill-opacity:1;stroke:none;stroke-width:0.26458332"
         aria-label=" الانمي">
        <path
           inkscape:connector-curvature="0"
           id="path924"
           style="font-style:normal;font-variant:normal;font-weight:normal;font-stretch:normal;font-size:16.93333244px;font-family:Aqlaam;-inkscape-font-specification:Aqlaam;fill:#ffffff;fill-opacity:1;stroke-width:0.26458332"
           d="m 113.85351,205.75667 c 0,1.18533 0.97367,2.11666 2.11667,2.11666 1.18533,0 2.11667,-0.93133 2.11667,-2.11666 v -23.368 c 0,-1.18534 -0.93134,-2.11667 -2.11667,-2.11667 -1.143,0 -2.11667,0.93133 -2.11667,2.11667 z" />
        <path
           inkscape:connector-curvature="0"
           id="path926"
           style="font-style:normal;font-variant:normal;font-weight:normal;font-stretch:normal;font-size:50.79999924px;font-family:Aqlaam;-inkscape-font-specification:Aqlaam;fill:#ffffff;fill-opacity:1;stroke-width:0.26458332"
           d="m 103.24108,192.80267 c -1.143,-0.59267 -2.413,-0.97367 -3.809999,-0.97367 -1.354667,0 -2.624667,0.381 -3.767667,0.97367 v -10.414 c 0,-1.143 -0.931333,-2.11667 -2.116666,-2.11667 -1.185334,0 -2.116667,0.97367 -2.116667,2.11667 V 199.703 c 0,0 0,0.0423 0,0.0423 v 0.127 c 0,4.40267 3.598333,8.001 8.001,8.001 4.444999,0 8.043329,-3.59833 8.043329,-8.001 0,-0.0423 0,-0.0847 0,-0.127 v -17.35666 c 0,-1.143 -0.93133,-2.11667 -2.11666,-2.11667 -1.18534,0 -2.11667,0.97367 -2.11667,2.11667 z m -3.809999,3.25966 c 2.116669,0 3.809999,1.73567 3.809999,3.81 0,2.07434 -1.69333,3.76767 -3.809999,3.76767 -2.074333,0 -3.767667,-1.69333 -3.767667,-3.76767 0,-2.07433 1.693334,-3.81 3.767667,-3.81 z" />
        <path
           inkscape:connector-curvature="0"
           id="path928"
           style="font-style:normal;font-variant:normal;font-weight:normal;font-stretch:normal;font-size:50.79999924px;font-family:Aqlaam;-inkscape-font-specification:Aqlaam;fill:#ffffff;fill-opacity:1;stroke-width:0.26458332"
           d="m 83.053371,182.38867 c -1.312333,0 -2.370666,1.05833 -2.370666,2.37066 0,1.35467 1.058333,2.413 2.370666,2.413 1.312334,0 2.413,-1.05833 2.413,-2.413 0,-1.31233 -1.100666,-2.37066 -2.413,-2.37066 z m -1.820333,19.13466 c 0,1.18534 -0.973667,2.11667 -2.116667,2.11667 h -2.413 v 4.23333 h 2.413 c 3.471334,0 6.35,-2.83633 6.35,-6.35 v -7.57766 c 0,-1.143 -0.973666,-2.11667 -2.116666,-2.11667 -1.185334,0 -2.116667,0.97367 -2.116667,2.11667 z" />
        <path
           inkscape:connector-curvature="0"
           id="path930"
           style="font-style:normal;font-variant:normal;font-weight:normal;font-stretch:normal;font-size:50.79999924px;font-family:Aqlaam;-inkscape-font-specification:Aqlaam;fill:#ffffff;fill-opacity:1;stroke-width:0.26458332"
           d="m 56.89137,201.52333 c 0,1.18534 -0.931334,2.11667 -2.116667,2.11667 H 51.30337 v 4.23333 h 3.471333 c 1.862667,0 3.556,-0.80433 4.741333,-2.11666 1.397,1.31233 3.302,2.11666 5.418667,2.11666 2.074333,0 3.979333,-0.80433 5.418667,-2.11666 1.142999,1.31233 2.836333,2.11666 4.698999,2.11666 h 1.778 V 203.64 h -1.778 c -1.185333,0 -2.116666,-0.93133 -2.116666,-2.11667 v -1.651 c 0,-4.445 -3.598333,-8.04333 -8.001,-8.04333 -1.481667,0 -2.878667,0.381 -4.064,1.10067 -0.381,-0.635 -1.058333,-1.10067 -1.862667,-1.10067 -1.185333,0 -2.116666,0.93133 -2.116666,2.11667 z m 8.043333,-5.461 c 2.074333,0 3.767667,1.69334 3.767667,3.81 0,2.07434 -1.693334,3.76767 -3.767667,3.76767 -2.116667,0 -3.81,-1.69333 -3.81,-3.76767 0,-2.11666 1.693333,-3.81 3.81,-3.81 z" />
        <path
           inkscape:connector-curvature="0"
           id="path932"
           style="font-style:normal;font-variant:normal;font-weight:normal;font-stretch:normal;font-size:50.79999924px;font-family:Aqlaam;-inkscape-font-specification:Aqlaam;fill:#ffffff;fill-opacity:1;stroke-width:0.26458332"
           d="m 31.519155,191.829 c -2.328333,0 -4.233333,1.905 -4.233333,4.23333 v 1.651 c 0,2.32834 1.905,4.23334 4.233333,4.23334 h 5.588 c -0.169333,0.97366 -1.058333,1.69333 -2.074333,1.69333 h -11.303 c -1.143,0 -2.116667,-0.93133 -2.116667,-2.11667 v -7.57766 c 0,-1.18534 -0.931333,-2.11667 -2.116666,-2.11667 -1.185334,0 -2.116667,0.93133 -2.116667,2.11667 v 7.57766 c 0,3.51367 2.836333,6.35 6.35,6.35 h 11.303 c 3.513666,0 6.35,-2.83633 6.35,-6.35 v -3.81 h -9.863667 v -1.651 h 10.117667 c 0.889,0 1.651,0.762 1.651,1.651 v 3.81 c 0,3.51367 2.836333,6.35 6.35,6.35 h 1.778 V 203.64 h -1.778 c -1.185334,0 -2.116667,-0.93133 -2.116667,-2.11667 v -3.81 c 0,-3.21733 -2.667,-5.88433 -5.884333,-5.88433 z m -4.995333,17.653 c -1.312333,0 -2.370667,1.05833 -2.370667,2.37067 0,1.31233 1.058334,2.37066 2.370667,2.37066 1.354667,0 2.413,-1.05833 2.413,-2.37066 0,-1.31234 -1.058333,-2.37067 -2.413,-2.37067 z m 5.715,0 c -1.312334,0 -2.370667,1.05833 -2.370667,2.37067 0,1.31233 1.058333,2.37066 2.370667,2.37066 1.312333,0 2.370666,-1.05833 2.370666,-2.37066 0,-1.31234 -1.058333,-2.37067 -2.370666,-2.37067 z" />
      </g>
      <g
         transform="matrix(1.3934408,0,0,1.3934408,-33.620088,-42.118231)"
         id="text1229"
         style="font-style:normal;font-weight:normal;font-size:10.58333302px;line-height:1.25;font-family:sans-serif;letter-spacing:0px;word-spacing:0px;fill:#ffffff;fill-opacity:1;stroke:none;stroke-width:0.26458332"
         aria-label="مركز">
        <path
           inkscape:connector-curvature="0"
           id="path935"
           style="font-style:normal;font-variant:normal;font-weight:normal;font-stretch:normal;font-size:16.93333244px;font-family:Aqlaam;-inkscape-font-specification:Aqlaam;fill:#ffffff;fill-opacity:1;stroke-width:0.26458332"
           d="m 112.61343,171.85216 c 0,0.381 -0.31045,0.70556 -0.70556,0.70556 h -1.15711 v 1.41111 h 1.15711 c 0.62089,0 1.18534,-0.28223 1.58045,-0.70556 0.46566,0.43745 1.10066,0.70556 1.80622,0.70556 1.46755,0 2.667,-1.19945 2.667,-2.68111 0,-1.46756 -1.19945,-2.667 -2.667,-2.667 -0.49389,0 -0.95956,0.127 -1.35467,0.36688 -0.127,-0.22577 -0.35278,-0.36688 -0.62089,-0.36688 -0.39511,0 -0.70555,0.31044 -0.70555,0.70555 z m 2.68111,-1.82033 c 0.69144,0 1.25589,0.56444 1.25589,1.25589 0,0.70555 -0.56445,1.27 -1.25589,1.27 -0.70556,0 -1.27,-0.56445 -1.27,-1.27 0,-0.69145 0.56444,-1.25589 1.27,-1.25589 z" />
        <path
           inkscape:connector-curvature="0"
           id="path937"
           style="font-style:normal;font-variant:normal;font-weight:normal;font-stretch:normal;font-size:16.93333244px;font-family:Aqlaam;-inkscape-font-specification:Aqlaam;fill:#ffffff;fill-opacity:1;stroke-width:0.26458332"
           d="m 108.18438,173.47494 c 0,1.07244 -0.80434,1.94733 -1.79211,1.94733 -0.381,0 -0.70556,0.32456 -0.70556,0.70556 0,0.39511 0.32456,0.70555 0.70556,0.70555 0.86077,0 1.67922,-0.35278 2.286,-1.00189 0.508,-0.53622 0.81844,-1.24177 0.889,-1.98966 0.23988,0.0847 0.47977,0.127 0.73377,0.127 h 0.59267 v -1.41111 h -0.59267 c -0.39511,0 -0.70555,-0.31045 -0.70555,-0.70556 v -1.27 c 0,-1.07244 -0.889,-1.96144 -1.97556,-1.96144 -0.39511,0 -0.70555,0.31044 -0.70555,0.70555 0,0.39511 0.31044,0.70556 0.70555,0.70556 0.31045,0 0.56445,0.254 0.56445,0.55033 z" />
        <path
           inkscape:connector-curvature="0"
           id="path939"
           style="font-style:normal;font-variant:normal;font-weight:normal;font-stretch:normal;font-size:16.93333244px;font-family:Aqlaam;-inkscape-font-specification:Aqlaam;fill:#ffffff;fill-opacity:1;stroke-width:0.26458332"
           d="m 98.930575,170.03183 h 1.566335 c 0.69144,0 1.27,0.56444 1.27,1.25589 0,0.70555 -0.57856,1.27 -1.27,1.27 h -1.89089 v 1.41111 h 1.89089 c 1.48167,0 2.68111,-1.19945 2.68111,-2.68111 0,-1.00189 -0.56444,-1.89089 -1.397,-2.34245 l 3.37256,-3.82411 c 0.254,-0.28222 0.22577,-0.73378 -0.0564,-0.98778 -0.29633,-0.26811 -0.74789,-0.23989 -1.00189,0.0565 z" />
        <path
           inkscape:connector-curvature="0"
           id="path941"
           style="font-style:normal;font-variant:normal;font-weight:normal;font-stretch:normal;font-size:16.93333244px;font-family:Aqlaam;-inkscape-font-specification:Aqlaam;fill:#ffffff;fill-opacity:1;stroke-width:0.26458332"
           d="m 95.931066,165.47394 c -0.437445,0 -0.790222,0.35278 -0.790222,0.79022 0,0.43744 0.352777,0.80433 0.790222,0.80433 0.437444,0 0.804333,-0.36689 0.804333,-0.80433 0,-0.43744 -0.366889,-0.79022 -0.804333,-0.79022 z m 0.04233,8.001 c 0,1.07244 -0.804333,1.94733 -1.792111,1.94733 -0.381,0 -0.705555,0.32456 -0.705555,0.70556 0,0.39511 0.324555,0.70555 0.705555,0.70555 0.860778,0 1.679222,-0.35278 2.286,-1.00189 0.508,-0.53622 0.818444,-1.24177 0.889,-1.98966 0.239889,0.0847 0.479778,0.127 0.733778,0.127 h 0.592666 v -1.41111 h -0.592666 c -0.395111,0 -0.705556,-0.31045 -0.705556,-0.70556 v -1.27 c 0,-1.07244 -0.889,-1.96144 -1.975555,-1.96144 -0.395111,0 -0.705556,0.31044 -0.705556,0.70555 0,0.39511 0.310445,0.70556 0.705556,0.70556 0.310444,0 0.564444,0.254 0.564444,0.55033 z" />
      </g>
    </g>
    <g
       id="g987"
       transform="matrix(1.4174929,0,0,1.4174929,-339.84421,-111.48017)">
      <path
         transform="translate(1.3188124,143.77785)"
         d="m 80.469124,90.288934 -4.943611,2.854195 -4.943612,-2.854196 0,-5.70839 4.943612,-2.854196 4.943611,2.854196 z"
         inkscape:randomized="1.02002e-015"
         inkscape:rounded="1.00614e-016"
         inkscape:flatsided="true"
         sodipodi:arg2="1.0471976"
         sodipodi:arg1="0.52359878"
         sodipodi:r2="4.9436116"
         sodipodi:r1="5.7083907"
         sodipodi:cy="87.434738"
         sodipodi:cx="75.525513"
         sodipodi:sides="6"
         id="path940"
         style="opacity:1;fill:url(#radialGradient968);fill-opacity:1;stroke:none;stroke-width:0.40199876;stroke-opacity:1"
         sodipodi:type="star" />
      <path
         sodipodi:type="star"
         style="opacity:1;fill:url(#radialGradient958);fill-opacity:1;stroke:none;stroke-width:0.37400138;stroke-opacity:1"
         id="path942"
         sodipodi:sides="6"
         sodipodi:cx="70.265503"
         sodipodi:cy="81.345306"
         sodipodi:r1="5.3108273"
         sodipodi:r2="4.5993118"
         sodipodi:arg1="0.52359878"
         sodipodi:arg2="1.0471976"
         inkscape:flatsided="true"
         inkscape:rounded="1.00614e-016"
         inkscape:randomized="1.02002e-015"
         d="m 74.864814,84.00072 -4.599311,2.655414 -4.599311,-2.655414 0,-5.310827 4.599311,-2.655414 4.599311,2.655414 z"
         transform="translate(6.5788222,149.86728)" />
      <path
         sodipodi:type="star"
         style="opacity:1;fill:#ffffff;fill-opacity:1;stroke:none;stroke-width:0.26695257;stroke-opacity:1"
         id="path960"
         sodipodi:sides="6"
         sodipodi:cx="50.153709"
         sodipodi:cy="58.062187"
         sodipodi:r1="3.7907319"
         sodipodi:r2="3.2828703"
         sodipodi:arg1="0.52359878"
         sodipodi:arg2="1.0471976"
         inkscape:flatsided="true"
         inkscape:rounded="1.00614e-016"
         inkscape:randomized="1.02002e-015"
         d="m 53.43658,59.957553 -3.282871,1.895366 -3.28287,-1.895366 0,-3.790732 3.28287,-1.895366 3.282871,1.895366 z"
         transform="translate(26.690616,173.1504)" />
      <path
         inkscape:transform-center-y="-5.7049562e-006"
         inkscape:transform-center-x="-0.615001"
         transform="translate(45.179466,202.04422)"
         d="m 34.056023,29.168364 -3.690005,2.130425 v -4.260851 z"
         inkscape:randomized="1.02002e-015"
         inkscape:rounded="1.00614e-016"
         inkscape:flatsided="true"
         sodipodi:arg2="1.0471976"
         sodipodi:arg1="0"
         sodipodi:r2="1.2300018"
         sodipodi:r1="2.4600034"
         sodipodi:cy="29.168364"
         sodipodi:cx="31.59602"
         sodipodi:sides="3"
         id="path970"
         style="opacity:1;fill:#0091fb;fill-opacity:1;stroke:none;stroke-width:0.13571303;stroke-opacity:1"
         sodipodi:type="star" />
      <path
         sodipodi:type="star"
         style="opacity:1;fill:#ffffff;fill-opacity:1;stroke:none;stroke-width:0.06829457;stroke-opacity:1"
         id="path972"
         sodipodi:sides="3"
         sodipodi:cx="15.899995"
         sodipodi:cy="14.678331"
         sodipodi:r1="1.2379421"
         sodipodi:r2="0.61897111"
         sodipodi:arg1="0"
         sodipodi:arg2="1.0471976"
         inkscape:flatsided="true"
         inkscape:rounded="1.00614e-016"
         inkscape:randomized="1.02002e-015"
         d="m 17.137937,14.678331 -1.856913,1.07209 v -2.144179 z"
         transform="translate(60.853601,216.53425)"
         inkscape:transform-center-x="-0.30948478"
         inkscape:transform-center-y="2.0989991e-006" />
    </g>
  </g>
</svg>
